<?xml version="1.0" encoding="UTF-8"?>
<svg id="Layer_1" data-name="Layer 1" xmlns="http://www.w3.org/2000/svg" viewBox="0 0 52.08 20.19">
  <defs>
    <style>
      .cls-1 {
        fill: #fff;
      }

      .cls-2 {
        fill: #1ea289;
      }
    </style>
  </defs>
  <polygon class="cls-2" points="52.08 0 2.63 0 0 20.19 49.46 20.19 52.08 0"/>
  <g>
    <path class="cls-1" d="M8.94,13.33h-2.4l-.73,1.88h-1.87l4.33-10.06h1.64l1,10.06h-1.88l-.11-1.88ZM7.27,11.46h1.56l-.2-3.49-1.36,3.49Z"/>
    <path class="cls-1" d="M15.43,5.15l.45,7,2.78-7h2.3l-1.67,10.06h-1.75l.39-2.35.97-4.81-2.94,7.16h-1.16l-.57-7.16-.63,4.81-.39,2.35h-1.75l1.67-10.06h2.3Z"/>
    <path class="cls-1" d="M20.4,15.21l1.67-10.06h2.61c.93,0,1.6.24,2.01.71.41.47.54,1.16.39,2.07-.09.52-.25.96-.48,1.33-.23.37-.53.64-.9.82.36.14.6.4.74.77.14.38.16.84.07,1.38-.16.99-.51,1.73-1.04,2.22-.53.5-1.24.75-2.13.76h-2.94ZM22.86,10.93l-.4,2.41h1.15c.32,0,.58-.1.78-.3.2-.2.33-.48.4-.85.14-.84-.09-1.26-.69-1.26h-1.23ZM23.12,9.35h.91c.38,0,.67-.1.87-.29.19-.19.32-.47.38-.84.07-.42.03-.73-.11-.92-.14-.19-.41-.28-.8-.28h-.86l-.39,2.33Z"/>
    <path class="cls-1" d="M34.34,5.15l-1.1,6.58c-.12.75-.35,1.39-.67,1.94-.32.54-.72.96-1.19,1.25-.48.29-1.01.43-1.59.43-.88,0-1.53-.32-1.93-.95-.4-.64-.52-1.51-.34-2.61l1.1-6.63h1.76l-1.11,6.68c-.16,1.1.11,1.65.83,1.65.36,0,.66-.14.89-.41.23-.28.4-.72.5-1.35l1.09-6.57h1.75Z"/>
    <path class="cls-1" d="M37.94,12.54c.06-.35.01-.63-.13-.83s-.43-.4-.85-.61-.76-.42-1.01-.62c-.83-.64-1.16-1.52-.97-2.64.09-.56.29-1.05.6-1.47.31-.43.69-.76,1.16-1,.47-.24.97-.36,1.5-.36s.97.13,1.34.39c.37.26.63.62.78,1.1.15.48.17,1.02.07,1.63h-1.74c.07-.41.03-.73-.11-.95-.14-.23-.37-.34-.68-.34s-.57.1-.79.29c-.21.19-.34.43-.39.73-.04.26.02.49.18.7.16.21.48.43.94.65.46.22.84.46,1.12.72.68.63.93,1.49.74,2.59-.15.88-.5,1.57-1.06,2.07s-1.26.75-2.09.75c-.59,0-1.1-.15-1.52-.44-.43-.29-.72-.69-.88-1.2-.16-.51-.18-1.09-.07-1.76h1.75c-.09.54-.06.94.1,1.19s.46.38.92.38c.29,0,.53-.09.73-.26.2-.17.32-.42.37-.73Z"/>
    <path class="cls-1" d="M46.2,15.21h-1.74l.7-4.2h-2.58l-.7,4.2h-1.75l1.67-10.06h1.75l-.67,3.99h2.58l.67-3.99h1.74l-1.67,10.06Z"/>
  </g>
</svg>