<?xml version="1.0" encoding="UTF-8"?>
<svg id="Layer_1" data-name="Layer 1" xmlns="http://www.w3.org/2000/svg" viewBox="0 0 65.32 20.19">
  <defs>
    <style>
      .cls-1 {
        fill: #fff;
      }

      .cls-2 {
        fill: #c9346c;
      }
    </style>
  </defs>
  <polygon class="cls-2" points="65.32 0 3.29 0 0 20.19 62.02 20.19 65.32 0"/>
  <g>
    <path class="cls-1" d="M10.73,13.33h-2.4l-.73,1.88h-1.87l4.33-10.06h1.65l1,10.06h-1.88l-.11-1.88ZM9.07,11.46h1.56l-.2-3.49-1.36,3.49Z"/>
    <path class="cls-1" d="M17.44,12.54c.06-.35.01-.63-.13-.83-.15-.2-.43-.4-.85-.61s-.76-.42-1.01-.62c-.83-.64-1.16-1.52-.97-2.64.09-.56.29-1.05.6-1.47.31-.43.69-.76,1.16-1,.47-.24.97-.36,1.5-.36s.97.13,1.34.39c.37.26.63.62.78,1.1.15.48.17,1.02.07,1.63h-1.74c.07-.41.03-.73-.11-.95-.14-.23-.37-.34-.68-.34s-.57.1-.79.29c-.21.19-.34.43-.39.73-.04.26.02.49.18.7.17.21.48.43.94.65.46.22.84.46,1.12.72.68.63.93,1.49.74,2.59-.15.88-.5,1.57-1.06,2.07-.56.5-1.26.75-2.09.75-.59,0-1.1-.15-1.52-.44-.43-.29-.72-.69-.88-1.2-.16-.51-.18-1.09-.07-1.76h1.75c-.09.54-.05.94.1,1.19.16.26.46.38.92.38.29,0,.53-.09.73-.26.2-.17.32-.42.37-.73Z"/>
    <path class="cls-1" d="M23.82,12.54c.06-.35.01-.63-.13-.83s-.43-.4-.85-.61-.76-.42-1.01-.62c-.83-.64-1.16-1.52-.97-2.64.09-.56.29-1.05.6-1.47.31-.43.69-.76,1.16-1,.47-.24.97-.36,1.5-.36s.97.13,1.34.39c.37.26.63.62.78,1.1.15.48.17,1.02.07,1.63h-1.74c.07-.41.03-.73-.11-.95-.14-.23-.37-.34-.68-.34s-.57.1-.79.29c-.21.19-.34.43-.39.73-.04.26.02.49.18.7.16.21.48.43.94.65.46.22.84.46,1.12.72.68.63.93,1.49.74,2.59-.15.88-.5,1.57-1.06,2.07s-1.26.75-2.09.75c-.59,0-1.1-.15-1.52-.44-.43-.29-.72-.69-.88-1.2-.16-.51-.18-1.09-.07-1.76h1.75c-.09.54-.06.94.1,1.19s.46.38.92.38c.29,0,.53-.09.73-.26.2-.17.32-.42.37-.73Z"/>
    <path class="cls-1" d="M30.45,13.33h-2.4l-.73,1.88h-1.87l4.33-10.06h1.64l1,10.06h-1.88l-.11-1.88ZM28.79,11.46h1.56l-.2-3.49-1.36,3.49Z"/>
    <path class="cls-1" d="M40.25,5.15l-1.1,6.58c-.12.75-.35,1.39-.67,1.94-.32.54-.72.96-1.19,1.25-.48.29-1.01.43-1.59.43-.88,0-1.53-.32-1.93-.95s-.52-1.51-.34-2.61l1.1-6.63h1.76l-1.11,6.68c-.16,1.1.11,1.65.83,1.65.36,0,.66-.14.89-.41.23-.28.4-.72.5-1.35l1.09-6.57h1.75Z"/>
    <path class="cls-1" d="M41.72,13.34h3.04l-.31,1.87h-4.79l1.67-10.06h1.75l-1.36,8.19Z"/>
    <path class="cls-1" d="M51.23,7.02h-2.18l-1.36,8.19h-1.75l1.36-8.19h-2.14l.31-1.87h6.06l-.31,1.87Z"/>
    <path class="cls-1" d="M57.8,15.21h-5.06l.25-1.52,2.9-3.4c.72-.91,1.13-1.63,1.22-2.16.07-.43.06-.76-.04-.99-.1-.23-.28-.34-.54-.34s-.49.15-.7.45c-.21.3-.35.68-.43,1.13h-1.68c.1-.62.31-1.19.62-1.71.31-.52.69-.93,1.13-1.23.44-.29.91-.44,1.4-.44.78,0,1.35.25,1.69.75.34.5.43,1.22.28,2.16-.07.4-.18.78-.35,1.16-.17.38-.4.77-.69,1.18-.29.41-.75.96-1.36,1.65l-1.19,1.5h2.85l-.3,1.8Z"/>
  </g>
</svg>