<?xml version="1.0" encoding="UTF-8"?>
<svg id="Layer_1" data-name="Layer 1" xmlns="http://www.w3.org/2000/svg" viewBox="0 0 33.41 20.19">
  <defs>
    <style>
      .cls-1 {
        fill: #fff;
      }

      .cls-2 {
        fill: #6b6f70;
      }
    </style>
  </defs>
  <polygon class="cls-2" points="33.41 0 1.68 0 0 20.19 31.72 20.19 33.41 0"/>
  <g>
    <path class="cls-1" d="M4.3,15.21l1.67-10.06h2.61c.93,0,1.6.24,2.01.71.41.47.54,1.16.39,2.07-.09.52-.25.96-.48,1.33-.23.37-.53.64-.9.82.36.14.6.4.74.77.14.38.16.84.07,1.38-.16.99-.51,1.73-1.04,2.22s-1.24.75-2.13.76h-2.94ZM6.76,10.93l-.4,2.41h1.15c.32,0,.58-.1.78-.3.2-.2.33-.48.39-.85.14-.84-.09-1.26-.69-1.26h-1.23ZM7.03,9.35h.91c.38,0,.67-.1.86-.29.2-.19.32-.47.38-.84.07-.42.03-.73-.11-.92-.14-.19-.41-.28-.8-.28h-.86l-.39,2.33Z"/>
    <path class="cls-1" d="M18.25,5.15l-1.1,6.58c-.12.75-.35,1.39-.67,1.94-.32.54-.72.96-1.19,1.25-.48.29-1.01.43-1.59.43-.88,0-1.53-.32-1.93-.95-.4-.64-.52-1.51-.34-2.61l1.1-6.63h1.76l-1.11,6.68c-.16,1.1.11,1.65.83,1.65.36,0,.66-.14.89-.41.23-.28.4-.72.5-1.35l1.09-6.57h1.75Z"/>
    <path class="cls-1" d="M22.9,11.2h-2.82l-.67,4.01h-1.75l1.67-10.06h4.85l-.31,1.87h-3.1l-.39,2.31h2.82l-.31,1.87Z"/>
    <path class="cls-1" d="M28.48,11.2h-2.82l-.67,4.01h-1.75l1.67-10.06h4.85l-.31,1.87h-3.1l-.39,2.31h2.82l-.31,1.87Z"/>
  </g>
</svg>