<?xml version="1.0" encoding="UTF-8"?>
<svg id="Layer_1" data-name="Layer 1" xmlns="http://www.w3.org/2000/svg" viewBox="0 0 73.15 20.19">
  <defs>
    <style>
      .cls-1 {
        fill: #99b330;
      }
    </style>
  </defs>
  <polygon class="cls-1" points="73.15 0 3.69 0 0 20.19 69.46 20.19 73.15 0"/>
  <g>
    <path d="M5.08,15.21l1.67-10.06h2.34c.64,0,1.18.2,1.63.6.44.4.75.97.91,1.71.17.73.17,1.56.02,2.47l-.08.46c-.15.92-.43,1.75-.83,2.48-.4.73-.89,1.3-1.47,1.71-.58.41-1.18.62-1.81.62h-2.39ZM8.19,7.02l-1.05,6.32h.61c.5,0,.93-.25,1.28-.74.35-.5.61-1.23.77-2.21l.07-.43c.16-.97.15-1.7-.04-2.2-.19-.49-.54-.74-1.05-.74h-.59Z"/>
    <path d="M16.89,10.94h-2.75l-.4,2.4h3.25l-.31,1.87h-5l1.67-10.06h5.01l-.31,1.87h-3.26l-.35,2.12h2.75l-.3,1.8Z"/>
    <path d="M21.82,13.33h-2.39l-.73,1.88h-1.87l4.33-10.06h1.64l1,10.06h-1.88l-.11-1.88ZM20.15,11.46h1.56l-.2-3.49-1.36,3.49Z"/>
    <path d="M30.79,7.02h-2.18l-1.36,8.19h-1.75l1.36-8.19h-2.14l.31-1.87h6.06l-.31,1.87Z"/>
    <path d="M36.23,15.21h-1.74l.7-4.2h-2.58l-.7,4.2h-1.75l1.67-10.06h1.75l-.67,3.99h2.58l.67-3.99h1.74l-1.67,10.06Z"/>
    <path d="M40.42,11.47l-.9,1.09-.44,2.65h-1.75l1.67-10.06h1.75l-.74,4.43.82-1.28,2.09-3.16h2.16l-3.19,4.45,1.52,5.61h-2.07l-.92-3.74Z"/>
    <path d="M49.92,15.21h-1.74l-1.53-6.26-1.04,6.26h-1.75l1.67-10.06h1.75l1.52,6.26,1.04-6.26h1.74l-1.67,10.06Z"/>
    <path d="M56.23,10.94h-2.75l-.4,2.4h3.25l-.31,1.87h-5l1.67-10.06h5.01l-.31,1.87h-3.26l-.35,2.12h2.75l-.3,1.8Z"/>
    <path d="M58.79,13.34h3.04l-.31,1.87h-4.79l1.67-10.06h1.75l-1.36,8.19Z"/>
    <path d="M64.32,13.34h3.04l-.31,1.87h-4.79l1.67-10.06h1.75l-1.36,8.19Z"/>
  </g>
</svg>