<?xml version="1.0" encoding="UTF-8"?>
<svg id="Layer_1" data-name="Layer 1" xmlns="http://www.w3.org/2000/svg" viewBox="0 0 54.06 20.19">
  <defs>
    <style>
      .cls-1 {
        fill: #99b330;
      }
    </style>
  </defs>
  <polygon class="cls-1" points="54.06 0 2.73 0 0 20.19 51.34 20.19 54.06 0"/>
  <g>
    <path d="M5.94,15.21l1.67-10.06h2.34c.64,0,1.18.2,1.63.6.44.4.75.97.91,1.71.17.73.17,1.56.02,2.47l-.08.46c-.15.92-.43,1.75-.83,2.48-.4.73-.89,1.3-1.47,1.71-.58.41-1.18.62-1.81.62h-2.39ZM9.05,7.02l-1.05,6.32h.61c.5,0,.93-.25,1.28-.74.35-.5.61-1.23.77-2.21l.07-.43c.16-.97.15-1.7-.04-2.2-.19-.49-.54-.74-1.05-.74h-.59Z"/>
    <path d="M17.74,10.94h-2.75l-.4,2.4h3.25l-.31,1.87h-5l1.67-10.06h5.01l-.31,1.87h-3.26l-.35,2.12h2.75l-.3,1.8Z"/>
    <path d="M23.47,11.2h-2.82l-.67,4.01h-1.75l1.67-10.06h4.85l-.31,1.87h-3.1l-.39,2.31h2.82l-.31,1.87Z"/>
    <path d="M25.88,13.34h3.04l-.31,1.87h-4.79l1.67-10.06h1.75l-1.36,8.19Z"/>
    <path d="M34.55,10.94h-2.75l-.4,2.4h3.25l-.31,1.87h-5l1.67-10.06h5.01l-.31,1.87h-3.26l-.35,2.12h2.75l-.3,1.8Z"/>
    <path d="M41.49,11.8c-.14.7-.38,1.32-.72,1.85-.34.54-.76.95-1.26,1.25-.5.29-1.04.44-1.62.44-.95,0-1.63-.43-2.04-1.29-.41-.86-.48-2.08-.22-3.65l.08-.5c.16-.98.43-1.85.8-2.59.37-.74.82-1.31,1.35-1.71.53-.4,1.1-.6,1.71-.6.88,0,1.53.32,1.96.96.43.64.58,1.53.47,2.66h-1.74c.09-.61.05-1.05-.11-1.32-.16-.27-.46-.4-.89-.4s-.79.23-1.07.68c-.28.45-.5,1.17-.68,2.16l-.12.71c-.18,1.07-.21,1.84-.09,2.3.12.46.41.69.89.69.4,0,.73-.13.99-.39.25-.26.44-.68.55-1.25h1.74Z"/>
    <path d="M48.66,7.02h-2.18l-1.36,8.19h-1.75l1.36-8.19h-2.14l.31-1.87h6.06l-.31,1.87Z"/>
  </g>
</svg>