<?xml version="1.0" encoding="UTF-8"?>
<svg id="Layer_1" data-name="Layer 1" xmlns="http://www.w3.org/2000/svg" viewBox="0 0 44.06 20.19">
  <defs>
    <style>
      .cls-1 {
        fill: #fff;
      }

      .cls-2 {
        fill: #6b6f70;
      }
    </style>
  </defs>
  <polygon class="cls-2" points="44.06 0 2.22 0 0 20.19 41.84 20.19 44.06 0"/>
  <g>
    <path class="cls-1" d="M12.48,10.94h-2.75l-.4,2.4h3.25l-.31,1.87h-5l1.67-10.06h5.01l-.31,1.87h-3.26l-.35,2.12h2.75l-.3,1.8Z"/>
    <path class="cls-1" d="M19.93,10.39c-.15.93-.4,1.74-.74,2.44-.34.69-.74,1.25-1.2,1.67l.96,1.29-1.29,1.27-1.27-1.74c-.15.03-.3.04-.45.04-.62,0-1.13-.2-1.54-.59-.41-.4-.69-.96-.83-1.7-.15-.74-.14-1.58,0-2.54l.09-.53c.17-.99.44-1.86.83-2.61s.85-1.33,1.41-1.74c.55-.41,1.14-.61,1.76-.61s1.13.2,1.54.61c.41.4.69.98.83,1.73s.14,1.61-.02,2.57l-.08.46ZM18.22,9.97c.17-1,.17-1.76.02-2.28-.16-.52-.46-.78-.91-.78s-.85.26-1.17.77c-.32.51-.56,1.26-.73,2.24l-.08.46c-.17.99-.17,1.75-.03,2.28.15.53.45.79.92.79s.83-.26,1.15-.78c.32-.52.57-1.27.73-2.25l.08-.46Z"/>
    <path class="cls-1" d="M27.38,5.15l-1.1,6.58c-.12.75-.35,1.39-.67,1.94-.32.54-.72.96-1.19,1.25-.48.29-1.01.43-1.59.43-.88,0-1.53-.32-1.93-.95s-.52-1.51-.34-2.61l1.1-6.63h1.76l-1.11,6.68c-.16,1.1.11,1.65.83,1.65.36,0,.66-.14.89-.41.23-.28.4-.72.5-1.35l1.09-6.57h1.75Z"/>
    <path class="cls-1" d="M28.66,15.21h-1.74l1.67-10.06h1.74l-1.67,10.06Z"/>
    <path class="cls-1" d="M32.19,11.8l-.57,3.41h-1.75l1.67-10.06h2.89c.55,0,1.02.14,1.4.42.38.28.64.69.79,1.21.15.52.17,1.12.05,1.78-.16.98-.55,1.76-1.15,2.35-.6.59-1.35.88-2.23.88h-1.12ZM32.5,9.93h1.15c.34,0,.62-.12.83-.35.22-.23.36-.57.43-.99.08-.47.05-.84-.09-1.13s-.36-.42-.68-.43h-1.17l-.48,2.9Z"/>
  </g>
</svg>