<?xml version="1.0" encoding="UTF-8"?>
<svg id="Layer_1" data-name="Layer 1" xmlns="http://www.w3.org/2000/svg" viewBox="0 0 54.06 20.19">
  <defs>
    <style>
      .cls-1 {
        fill: #99b330;
      }
    </style>
  </defs>
  <polygon class="cls-1" points="54.06 0 2.73 0 0 20.19 51.34 20.19 54.06 0"/>
  <g>
    <path d="M10.64,13.97c-.34.42-.79.75-1.35,1-.56.25-1.15.38-1.77.38-.95,0-1.64-.4-2.08-1.21-.43-.81-.55-1.93-.35-3.36l.14-.87c.16-.99.44-1.85.81-2.59.38-.74.83-1.31,1.37-1.71.54-.4,1.11-.6,1.73-.6.9,0,1.56.29,1.96.86.4.57.55,1.43.45,2.57h-1.68c.03-.56-.03-.96-.19-1.2-.16-.24-.42-.36-.79-.36-.44,0-.82.26-1.15.77-.32.52-.57,1.25-.73,2.21l-.1.61c-.17,1-.17,1.76,0,2.26.16.5.51.76,1.04.76.46,0,.82-.14,1.09-.42l.26-1.56h-1.22l.28-1.66h2.96l-.69,4.13Z"/>
    <path d="M15.88,13.33h-2.39l-.73,1.88h-1.87l4.33-10.06h1.64l1,10.06h-1.88l-.11-1.88ZM14.22,11.46h1.56l-.2-3.49-1.36,3.49Z"/>
    <path d="M24.46,15.21h-1.74l-1.53-6.26-1.04,6.26h-1.75l1.67-10.06h1.75l1.52,6.26,1.04-6.26h1.74l-1.67,10.06Z"/>
    <path d="M28.65,11.47l-.9,1.09-.44,2.65h-1.75l1.67-10.06h1.75l-.74,4.43.82-1.28,2.09-3.16h2.16l-3.19,4.45,1.52,5.61h-2.07l-.92-3.74Z"/>
    <path d="M33.95,15.21h-1.74l1.67-10.06h1.74l-1.67,10.06Z"/>
    <path d="M41.22,15.21h-1.74l-1.53-6.26-1.04,6.26h-1.75l1.67-10.06h1.75l1.52,6.26,1.04-6.26h1.74l-1.67,10.06Z"/>
    <path d="M48.47,13.97c-.34.42-.79.75-1.35,1-.56.25-1.15.38-1.77.38-.95,0-1.64-.4-2.08-1.21-.43-.81-.55-1.93-.35-3.36l.14-.87c.16-.99.43-1.85.81-2.59.38-.74.83-1.31,1.37-1.71.54-.4,1.11-.6,1.73-.6.9,0,1.56.29,1.96.86.4.57.55,1.43.45,2.57h-1.68c.03-.56-.03-.96-.19-1.2-.16-.24-.42-.36-.79-.36-.44,0-.82.26-1.15.77-.32.52-.57,1.25-.73,2.21l-.1.61c-.17,1-.17,1.76,0,2.26.16.5.51.76,1.04.76.46,0,.82-.14,1.09-.42l.26-1.56h-1.21l.28-1.66h2.96l-.69,4.13Z"/>
  </g>
</svg>