<?xml version="1.0" encoding="UTF-8"?>
<svg id="Layer_1" data-name="Layer 1" xmlns="http://www.w3.org/2000/svg" viewBox="0 0 49.75 20.19">
  <defs>
    <style>
      .cls-1 {
        fill: #fff;
      }

      .cls-2 {
        fill: #1ea289;
      }
    </style>
  </defs>
  <polygon class="cls-2" points="49.75 0 2.51 0 0 20.19 47.24 20.19 49.75 0"/>
  <g>
    <path class="cls-1" d="M12.64,15.21h-1.74l.7-4.2h-2.58l-.7,4.2h-1.75l1.67-10.06h1.75l-.67,3.99h2.58l.67-3.99h1.74l-1.67,10.06Z"/>
    <path class="cls-1" d="M15.61,15.21h-1.74l1.67-10.06h1.74l-1.67,10.06Z"/>
    <path class="cls-1" d="M16.82,15.21l1.67-10.06h2.34c.64,0,1.18.2,1.63.6.44.4.75.97.91,1.71.17.73.17,1.56.02,2.47l-.08.46c-.15.92-.43,1.75-.83,2.48-.4.73-.89,1.3-1.47,1.71-.58.41-1.18.62-1.81.62h-2.39ZM19.94,7.02l-1.05,6.32h.61c.5,0,.93-.25,1.28-.74.35-.5.61-1.23.77-2.21l.07-.43c.16-.97.15-1.7-.04-2.2-.19-.49-.54-.74-1.05-.74h-.59Z"/>
    <path class="cls-1" d="M23.42,15.21l1.67-10.06h2.34c.64,0,1.18.2,1.63.6.44.4.75.97.91,1.71.17.73.17,1.56.02,2.47l-.08.46c-.15.92-.43,1.75-.83,2.48-.4.73-.89,1.3-1.47,1.71s-1.18.62-1.81.62h-2.39ZM26.53,7.02l-1.05,6.32h.61c.5,0,.93-.25,1.28-.74.35-.5.61-1.23.77-2.21l.07-.43c.16-.97.15-1.7-.04-2.2-.19-.49-.54-.74-1.05-.74h-.59Z"/>
    <path class="cls-1" d="M35.22,10.94h-2.75l-.4,2.4h3.25l-.31,1.87h-5l1.67-10.06h5.01l-.31,1.87h-3.26l-.35,2.12h2.75l-.3,1.8Z"/>
    <path class="cls-1" d="M41.78,15.21h-1.74l-1.53-6.26-1.04,6.26h-1.75l1.67-10.06h1.75l1.52,6.26,1.04-6.26h1.74l-1.67,10.06Z"/>
  </g>
</svg>