<?xml version="1.0" encoding="UTF-8"?>
<svg id="Layer_1" data-name="Layer 1" xmlns="http://www.w3.org/2000/svg" viewBox="0 0 39.82 20.19">
  <defs>
    <style>
      .cls-1 {
        fill: #99b330;
      }
    </style>
  </defs>
  <polygon class="cls-1" points="39.82 0 2.01 0 0 20.19 37.81 20.19 39.82 0"/>
  <g>
    <path d="M12.16,15.21h-1.74l.7-4.2h-2.58l-.7,4.2h-1.75l1.67-10.06h1.75l-.67,3.99h2.58l.67-3.99h1.74l-1.67,10.06Z"/>
    <path d="M20.62,5.15l-1.1,6.58c-.12.75-.35,1.39-.67,1.94-.32.54-.72.96-1.19,1.25-.48.29-1.01.43-1.59.43-.88,0-1.53-.32-1.93-.95-.4-.64-.52-1.51-.34-2.61l1.1-6.63h1.76l-1.11,6.68c-.16,1.1.11,1.65.83,1.65.36,0,.66-.14.89-.41.23-.28.4-.72.5-1.35l1.09-6.57h1.75Z"/>
    <path d="M26.1,15.21h-1.74l-1.53-6.26-1.04,6.26h-1.75l1.67-10.06h1.75l1.52,6.26,1.04-6.26h1.74l-1.67,10.06Z"/>
    <path d="M34.26,7.02h-2.18l-1.36,8.19h-1.75l1.36-8.19h-2.14l.31-1.87h6.06l-.31,1.87Z"/>
  </g>
</svg>