<?xml version="1.0" encoding="UTF-8"?>
<svg id="Layer_1" data-name="Layer 1" xmlns="http://www.w3.org/2000/svg" viewBox="0 0 49.75 20.19">
  <defs>
    <style>
      .cls-1 {
        fill: #fff;
      }

      .cls-2 {
        fill: #1ea289;
      }
    </style>
  </defs>
  <polygon class="cls-2" points="49.75 0 2.51 0 0 20.19 47.24 20.19 49.75 0"/>
  <g>
    <path class="cls-1" d="M9.05,13.34h3.04l-.31,1.87h-4.79l1.67-10.06h1.75l-1.36,8.19Z"/>
    <path class="cls-1" d="M17.73,10.94h-2.75l-.4,2.4h3.25l-.31,1.87h-5l1.67-10.06h5.01l-.31,1.87h-3.26l-.35,2.12h2.75l-.3,1.8Z"/>
    <path class="cls-1" d="M24.38,13.97c-.34.42-.79.75-1.35,1-.56.25-1.15.38-1.77.38-.95,0-1.64-.4-2.08-1.21-.43-.81-.55-1.93-.35-3.36l.14-.87c.16-.99.43-1.85.81-2.59.38-.74.83-1.31,1.37-1.71.54-.4,1.11-.6,1.73-.6.9,0,1.56.29,1.96.86.4.57.55,1.43.45,2.57h-1.68c.03-.56-.03-.96-.19-1.2-.16-.24-.42-.36-.79-.36-.44,0-.82.26-1.14.77-.32.52-.57,1.25-.73,2.21l-.1.61c-.17,1-.17,1.76,0,2.26.16.5.51.76,1.04.76.46,0,.82-.14,1.09-.42l.26-1.56h-1.22l.28-1.66h2.96l-.69,4.13Z"/>
    <path class="cls-1" d="M27.05,15.21h-1.74l1.67-10.06h1.74l-1.67,10.06Z"/>
    <path class="cls-1" d="M35.21,10.39c-.16.98-.44,1.85-.83,2.6-.39.76-.86,1.34-1.41,1.75-.55.41-1.13.61-1.75.61s-1.13-.2-1.55-.59-.69-.96-.84-1.69c-.15-.73-.15-1.57,0-2.52l.09-.57c.16-.99.44-1.85.82-2.61.39-.75.86-1.33,1.41-1.74.55-.41,1.14-.61,1.76-.61s1.13.2,1.54.61c.41.4.69.98.83,1.73s.14,1.61-.02,2.57l-.08.46ZM33.5,9.97c.17-1,.17-1.76.02-2.28-.15-.52-.46-.78-.9-.78-.88,0-1.49.91-1.84,2.73l-.13.74c-.16.99-.17,1.74-.02,2.27.15.53.45.79.92.79s.83-.26,1.15-.78c.33-.52.57-1.27.74-2.25l.08-.46Z"/>
    <path class="cls-1" d="M41.36,15.21h-1.74l-1.53-6.26-1.04,6.26h-1.75l1.67-10.06h1.75l1.52,6.26,1.04-6.26h1.74l-1.67,10.06Z"/>
  </g>
</svg>