<?xml version="1.0" encoding="UTF-8"?>
<svg id="Layer_1" data-name="Layer 1" xmlns="http://www.w3.org/2000/svg" viewBox="0 0 52.74 20.19">
  <defs>
    <style>
      .cls-1 {
        fill: #99b330;
      }
    </style>
  </defs>
  <polygon class="cls-1" points="52.74 10.09 44.28 20.19 0 20.19 2.24 0 44.28 0 52.74 10.09"/>
  <g>
    <path d="M7.46,13.34h3.04l-.31,1.87h-4.79l1.67-10.06h1.75l-1.36,8.19Z"/>
    <path d="M16.14,10.94h-2.75l-.4,2.4h3.25l-.31,1.87h-5l1.67-10.06h5.01l-.31,1.87h-3.26l-.35,2.12h2.75l-.3,1.8Z"/>
    <path d="M19.91,12.47l2.66-7.32h1.95l-4.12,10.06h-1.91l-.75-10.06h1.94l.22,7.32Z"/>
    <path d="M28.58,10.94h-2.75l-.4,2.4h3.25l-.31,1.87h-5l1.67-10.06h5.01l-.31,1.87h-3.26l-.35,2.12h2.75l-.3,1.8Z"/>
    <path d="M31.14,13.34h3.04l-.31,1.87h-4.79l1.67-10.06h1.75l-1.36,8.19Z"/>
    <path d="M39.58,9.2h.79c.63,0,1.01-.43,1.15-1.28.06-.33.03-.6-.09-.81-.12-.21-.31-.31-.58-.31-.22,0-.43.09-.63.27-.19.18-.31.4-.36.67h-1.68c.09-.53.27-1,.55-1.42.28-.41.63-.74,1.05-.97.42-.23.85-.35,1.3-.35.81,0,1.4.26,1.78.77.38.51.49,1.21.34,2.11-.07.43-.24.84-.49,1.23s-.58.7-.99.94c.35.19.61.49.76.88.15.39.18.88.09,1.46-.15.9-.52,1.62-1.11,2.16s-1.29.81-2.1.81c-.47,0-.89-.12-1.26-.38-.36-.25-.62-.6-.75-1.04-.14-.44-.16-.95-.06-1.52h1.69c-.05.31,0,.58.14.8s.34.34.61.34c.29,0,.55-.11.76-.34.21-.23.35-.52.41-.87.08-.51.05-.87-.09-1.08s-.38-.32-.71-.32h-.82l.29-1.73Z"/>
  </g>
</svg>