<?xml version="1.0" encoding="UTF-8"?>
<svg id="Layer_1" data-name="Layer 1" xmlns="http://www.w3.org/2000/svg" viewBox="0 0 57.69 20.19">
  <defs>
    <style>
      .cls-1 {
        fill: #99b330;
      }
    </style>
  </defs>
  <polygon class="cls-1" points="57.69 10.09 48.44 20.19 0 20.19 2.45 0 48.44 0 57.69 10.09"/>
  <g>
    <path d="M7.46,13.34h3.04l-.31,1.87h-4.79l1.67-10.06h1.75l-1.36,8.19Z"/>
    <path d="M16.14,10.94h-2.75l-.4,2.4h3.25l-.31,1.87h-5l1.67-10.06h5.01l-.31,1.87h-3.26l-.35,2.12h2.75l-.3,1.8Z"/>
    <path d="M19.91,12.47l2.66-7.32h1.95l-4.12,10.06h-1.91l-.75-10.06h1.94l.22,7.32Z"/>
    <path d="M28.58,10.94h-2.75l-.4,2.4h3.25l-.31,1.87h-5l1.67-10.06h5.01l-.31,1.87h-3.26l-.35,2.12h2.75l-.3,1.8Z"/>
    <path d="M31.14,13.34h3.04l-.31,1.87h-4.79l1.67-10.06h1.75l-1.36,8.19Z"/>
    <path d="M40.77,15.2h-1.68l1.24-7.43-1.76.67.29-1.77,3.44-1.53h.15l-1.67,10.06Z"/>
    <path d="M48.71,5l-.3,1.83h-.08c-.63,0-1.18.21-1.65.63-.47.42-.82,1-1.03,1.74.46-.52.98-.77,1.56-.77.63,0,1.07.32,1.34.95.27.64.31,1.47.14,2.5-.11.64-.31,1.23-.62,1.76-.31.54-.68.95-1.12,1.25-.44.3-.9.45-1.37.45-.51,0-.95-.16-1.3-.49s-.59-.79-.71-1.39c-.12-.6-.13-1.3,0-2.09l.15-.93c.17-1.04.49-1.97.95-2.79.46-.83,1.02-1.47,1.7-1.94.67-.47,1.37-.7,2.09-.7h.25ZM46.33,10.2c-.22,0-.42.07-.59.21-.17.14-.31.32-.42.52l-.12.7c-.21,1.27,0,1.91.63,1.91.26,0,.5-.16.72-.48.22-.32.38-.72.46-1.19.08-.49.06-.89-.06-1.21-.12-.31-.33-.47-.62-.47Z"/>
  </g>
</svg>