<?xml version="1.0" encoding="UTF-8"?>
<svg id="Layer_1" data-name="Layer 1" xmlns="http://www.w3.org/2000/svg" viewBox="0 0 57.69 20.19">
  <defs>
    <style>
      .cls-1 {
        fill: #99b330;
      }
    </style>
  </defs>
  <polygon class="cls-1" points="57.69 10.09 48.44 20.19 0 20.19 2.45 0 48.44 0 57.69 10.09"/>
  <g>
    <path d="M7.46,13.34h3.04l-.31,1.87h-4.79l1.67-10.06h1.75l-1.36,8.19Z"/>
    <path d="M16.14,10.94h-2.75l-.4,2.4h3.25l-.31,1.87h-5l1.67-10.06h5.01l-.31,1.87h-3.26l-.35,2.12h2.75l-.3,1.8Z"/>
    <path d="M19.91,12.47l2.66-7.32h1.95l-4.12,10.06h-1.91l-.75-10.06h1.94l.22,7.32Z"/>
    <path d="M28.58,10.94h-2.75l-.4,2.4h3.25l-.31,1.87h-5l1.67-10.06h5.01l-.31,1.87h-3.26l-.35,2.12h2.75l-.3,1.8Z"/>
    <path d="M31.14,13.34h3.04l-.31,1.87h-4.79l1.67-10.06h1.75l-1.36,8.19Z"/>
    <path d="M40.77,15.2h-1.68l1.24-7.43-1.76.67.29-1.77,3.44-1.53h.15l-1.67,10.06Z"/>
    <path d="M46.68,15.2h-1.68l1.24-7.43-1.76.67.29-1.77,3.44-1.53h.15l-1.67,10.06Z"/>
  </g>
</svg>