<?xml version="1.0" encoding="UTF-8"?>
<svg id="Layer_1" data-name="Layer 1" xmlns="http://www.w3.org/2000/svg" viewBox="0 0 52.32 20.19">
  <defs>
    <style>
      .cls-1 {
        fill: #fff;
      }

      .cls-2 {
        fill: #6b6f70;
      }
    </style>
  </defs>
  <polygon class="cls-2" points="52.32 0 2.64 0 0 20.19 49.68 20.19 52.32 0"/>
  <g>
    <path class="cls-1" d="M10.52,5.15l.45,7,2.78-7h2.3l-1.67,10.06h-1.75l.39-2.35.97-4.81-2.94,7.16h-1.16l-.57-7.16-.63,4.81-.39,2.35h-1.75l1.67-10.06h2.3Z"/>
    <path class="cls-1" d="M17.36,15.21h-1.74l1.67-10.06h1.74l-1.67,10.06Z"/>
    <path class="cls-1" d="M24.72,13.97c-.34.42-.79.75-1.35,1-.56.25-1.15.38-1.77.38-.95,0-1.64-.4-2.08-1.21-.43-.81-.55-1.93-.35-3.36l.14-.87c.16-.99.43-1.85.81-2.59.38-.74.83-1.31,1.37-1.71.54-.4,1.11-.6,1.73-.6.9,0,1.56.29,1.96.86.4.57.55,1.43.45,2.57h-1.68c.03-.56-.03-.96-.19-1.2-.16-.24-.42-.36-.79-.36-.44,0-.82.26-1.14.77-.32.52-.57,1.25-.73,2.21l-.1.61c-.17,1-.17,1.76,0,2.26.16.5.51.76,1.04.76.46,0,.82-.14,1.09-.42l.26-1.56h-1.22l.28-1.66h2.96l-.69,4.13Z"/>
    <path class="cls-1" d="M31.59,15.21h-1.74l.7-4.2h-2.58l-.7,4.2h-1.75l1.67-10.06h1.75l-.67,3.99h2.58l.67-3.99h1.74l-1.67,10.06Z"/>
    <path class="cls-1" d="M39.6,7.02h-2.18l-1.36,8.19h-1.75l1.36-8.19h-2.14l.31-1.87h6.06l-.31,1.87Z"/>
    <path class="cls-1" d="M42.66,9.52l2.06-4.37h1.89l-3.41,6.44-.6,3.61h-1.77l.6-3.61-1.26-6.44h1.88l.61,4.37Z"/>
  </g>
</svg>