<?xml version="1.0" encoding="UTF-8"?>
<svg id="Layer_1" data-name="Layer 1" xmlns="http://www.w3.org/2000/svg" viewBox="0 0 55.68 20.19">
  <defs>
    <style>
      .cls-1 {
        fill: #fff;
      }

      .cls-2 {
        fill: #6b6f70;
      }
    </style>
  </defs>
  <polygon class="cls-2" points="55.68 0 2.81 0 0 20.19 52.87 20.19 55.68 0"/>
  <g>
    <path class="cls-1" d="M9.28,11.8l-.57,3.41h-1.75l1.67-10.06h2.89c.55,0,1.02.14,1.4.42.38.28.64.69.79,1.21.15.52.17,1.12.05,1.78-.16.98-.55,1.76-1.15,2.35-.6.59-1.35.88-2.23.88h-1.12ZM9.59,9.93h1.15c.34,0,.62-.12.83-.35.22-.23.36-.57.43-.99.08-.47.05-.84-.09-1.13-.14-.28-.36-.42-.68-.43h-1.17l-.48,2.9Z"/>
    <path class="cls-1" d="M16.89,11.65h-.95l-.59,3.56h-1.75l1.67-10.06h2.85c.86,0,1.49.26,1.88.79.4.53.52,1.28.35,2.24-.12.7-.32,1.28-.6,1.74-.28.46-.66.83-1.15,1.12l.84,4.06-.02.1h-1.87l-.69-3.56ZM16.26,9.79h1.11c.33,0,.6-.12.81-.36.21-.24.35-.58.42-1.01.07-.43.04-.77-.08-1.02-.13-.25-.36-.37-.69-.37h-1.11l-.46,2.77Z"/>
    <path class="cls-1" d="M25.47,10.94h-2.75l-.4,2.4h3.25l-.31,1.87h-5l1.67-10.06h5.01l-.31,1.87h-3.26l-.35,2.12h2.75l-.3,1.8Z"/>
    <path class="cls-1" d="M25.97,15.21l1.67-10.06h2.34c.64,0,1.18.2,1.63.6.44.4.75.97.91,1.71.17.73.17,1.56.02,2.47l-.08.46c-.15.92-.43,1.75-.83,2.48-.4.73-.89,1.3-1.47,1.71-.58.41-1.18.62-1.81.62h-2.39ZM29.08,7.02l-1.05,6.32h.61c.5,0,.93-.25,1.28-.74.35-.5.61-1.23.77-2.21l.07-.43c.16-.97.15-1.7-.04-2.2-.19-.49-.54-.74-1.05-.74h-.59Z"/>
    <path class="cls-1" d="M34.42,15.21h-1.74l1.67-10.06h1.74l-1.67,10.06Z"/>
    <path class="cls-1" d="M42.07,11.8c-.14.7-.38,1.32-.72,1.85-.34.54-.76.95-1.26,1.25-.5.29-1.04.44-1.62.44-.95,0-1.63-.43-2.04-1.29-.41-.86-.48-2.08-.22-3.65l.08-.5c.16-.98.43-1.85.8-2.59.37-.74.82-1.31,1.35-1.71.53-.4,1.1-.6,1.71-.6.88,0,1.53.32,1.96.96.43.64.58,1.53.47,2.66h-1.74c.09-.61.05-1.05-.11-1.32-.16-.27-.46-.4-.89-.4s-.79.23-1.07.68c-.28.45-.5,1.17-.68,2.16l-.12.71c-.18,1.07-.21,1.84-.09,2.3.12.46.41.69.89.69.4,0,.73-.13.99-.39.25-.26.44-.68.55-1.25h1.74Z"/>
    <path class="cls-1" d="M49.25,7.02h-2.18l-1.36,8.19h-1.75l1.36-8.19h-2.14l.31-1.87h6.06l-.31,1.87Z"/>
  </g>
</svg>