<?xml version="1.0" encoding="UTF-8"?>
<svg id="Layer_1" data-name="Layer 1" xmlns="http://www.w3.org/2000/svg" viewBox="0 0 75.37 20.19">
  <defs>
    <style>
      .cls-1 {
        fill: #fff;
      }

      .cls-2 {
        fill: #1ea289;
      }
    </style>
  </defs>
  <polygon class="cls-2" points="75.37 0 3.8 0 0 20.19 71.57 20.19 75.37 0"/>
  <g>
    <path class="cls-1" d="M13.12,10.39c-.16.93-.4,1.74-.74,2.44-.34.69-.74,1.25-1.2,1.67l.96,1.29-1.29,1.27-1.27-1.74c-.15.03-.3.04-.45.04-.62,0-1.13-.2-1.54-.59-.41-.4-.69-.96-.84-1.7-.15-.74-.14-1.58,0-2.54l.09-.53c.17-.99.44-1.86.83-2.61.39-.75.85-1.33,1.4-1.74.55-.41,1.14-.61,1.76-.61s1.13.2,1.54.61c.41.4.69.98.83,1.73s.14,1.61-.02,2.57l-.08.46ZM11.41,9.97c.17-1,.17-1.76.02-2.28-.16-.52-.46-.78-.9-.78s-.85.26-1.17.77c-.32.51-.56,1.26-.73,2.24l-.08.46c-.16.99-.17,1.75-.03,2.28.15.53.45.79.92.79s.83-.26,1.15-.78c.32-.52.57-1.27.73-2.25l.08-.46Z"/>
    <path class="cls-1" d="M20.57,5.15l-1.1,6.58c-.12.75-.35,1.39-.67,1.94-.32.54-.72.96-1.19,1.25-.48.29-1.01.43-1.59.43-.88,0-1.53-.32-1.93-.95-.4-.64-.52-1.51-.34-2.61l1.1-6.63h1.76l-1.11,6.68c-.16,1.1.11,1.65.83,1.65.36,0,.66-.14.89-.41.23-.28.4-.72.5-1.35l1.09-6.57h1.75Z"/>
    <path class="cls-1" d="M21.85,15.21h-1.74l1.67-10.06h1.74l-1.67,10.06Z"/>
    <path class="cls-1" d="M29.5,11.8c-.14.7-.38,1.32-.72,1.85-.34.54-.76.95-1.26,1.25-.5.29-1.04.44-1.62.44-.95,0-1.63-.43-2.04-1.29-.41-.86-.48-2.08-.21-3.65l.08-.5c.16-.98.43-1.85.8-2.59.37-.74.82-1.31,1.35-1.71.53-.4,1.1-.6,1.71-.6.88,0,1.53.32,1.96.96.43.64.58,1.53.47,2.66h-1.74c.09-.61.05-1.05-.11-1.32-.16-.27-.46-.4-.89-.4s-.79.23-1.07.68c-.28.45-.5,1.17-.68,2.16l-.12.71c-.18,1.07-.21,1.84-.09,2.3.12.46.41.69.89.69.4,0,.73-.13.99-.39.25-.26.44-.68.55-1.25h1.74Z"/>
    <path class="cls-1" d="M32.85,11.47l-.9,1.09-.44,2.65h-1.75l1.67-10.06h1.75l-.74,4.43.82-1.28,2.09-3.16h2.16l-3.19,4.45,1.52,5.61h-2.07l-.92-3.74Z"/>
    <path class="cls-1" d="M39.24,11.77h-2.99l.3-1.8h2.99l-.3,1.8Z"/>
    <path class="cls-1" d="M40.06,15.21l1.67-10.06h2.34c.64,0,1.18.2,1.63.6.44.4.75.97.91,1.71.17.73.17,1.56.02,2.47l-.08.46c-.15.92-.43,1.75-.83,2.48-.4.73-.89,1.3-1.47,1.71-.58.41-1.18.62-1.81.62h-2.39ZM43.17,7.02l-1.05,6.32h.61c.5,0,.93-.25,1.28-.74.35-.5.61-1.23.77-2.21l.07-.43c.16-.97.15-1.7-.04-2.2-.19-.49-.54-.74-1.05-.74h-.59Z"/>
    <path class="cls-1" d="M49.94,11.65h-.95l-.59,3.56h-1.75l1.67-10.06h2.85c.86,0,1.49.26,1.88.79.4.53.52,1.28.35,2.24-.12.7-.32,1.28-.6,1.74-.28.46-.66.83-1.15,1.12l.84,4.06-.02.1h-1.87l-.69-3.56ZM49.3,9.79h1.11c.33,0,.6-.12.81-.36.21-.24.35-.58.42-1.01.07-.43.04-.77-.08-1.02-.13-.25-.36-.37-.69-.37h-1.11l-.46,2.77Z"/>
    <path class="cls-1" d="M57.74,13.33h-2.4l-.73,1.88h-1.87l4.33-10.06h1.64l1,10.06h-1.88l-.11-1.88ZM56.07,11.46h1.56l-.2-3.49-1.36,3.49Z"/>
    <path class="cls-1" d="M66.3,11.46l1.88-6.31h1.73l-3.21,10.06h-1.81l-.02-5.73-1.91,5.73h-1.81l.13-10.06h1.74l-.22,6.31,2.05-6.31h1.48l-.04,6.31Z"/>
  </g>
</svg>