<?xml version="1.0" encoding="UTF-8"?>
<svg id="Layer_1" data-name="Layer 1" xmlns="http://www.w3.org/2000/svg" viewBox="0 0 62.04 20.19">
  <defs>
    <style>
      .cls-1 {
        fill: #fff;
      }

      .cls-2 {
        fill: #1ea289;
      }
    </style>
  </defs>
  <polygon class="cls-2" points="62.04 0 3.13 0 0 20.19 58.91 20.19 62.04 0"/>
  <g>
    <path class="cls-1" d="M9.35,11.65h-.95l-.59,3.56h-1.75l1.67-10.06h2.85c.86,0,1.49.26,1.88.79.4.53.51,1.28.35,2.24-.12.7-.32,1.28-.6,1.74-.28.46-.66.83-1.15,1.12l.84,4.06-.02.1h-1.87l-.69-3.56ZM8.72,9.79h1.11c.33,0,.6-.12.81-.36.21-.24.35-.58.42-1.01.07-.43.04-.77-.08-1.02-.13-.25-.36-.37-.69-.37h-1.11l-.46,2.77Z"/>
    <path class="cls-1" d="M17.93,10.94h-2.75l-.4,2.4h3.25l-.31,1.87h-5l1.67-10.06h5.01l-.31,1.87h-3.26l-.35,2.12h2.75l-.3,1.8Z"/>
    <path class="cls-1" d="M22.86,13.33h-2.4l-.73,1.88h-1.87l4.33-10.06h1.64l1,10.06h-1.88l-.11-1.88ZM21.2,11.46h1.56l-.2-3.49-1.36,3.49Z"/>
    <path class="cls-1" d="M31.81,11.8c-.14.7-.38,1.32-.72,1.85-.34.54-.76.95-1.26,1.25-.5.29-1.04.44-1.62.44-.95,0-1.63-.43-2.04-1.29-.41-.86-.48-2.08-.22-3.65l.08-.5c.16-.98.43-1.85.8-2.59.37-.74.82-1.31,1.35-1.71.53-.4,1.1-.6,1.71-.6.88,0,1.53.32,1.96.96.43.64.58,1.53.47,2.66h-1.74c.09-.61.05-1.05-.11-1.32-.16-.27-.46-.4-.89-.4s-.79.23-1.07.68c-.28.45-.5,1.17-.68,2.16l-.12.71c-.18,1.07-.21,1.84-.09,2.3.12.46.41.69.89.69.4,0,.73-.13.99-.39.25-.26.44-.68.55-1.25h1.74Z"/>
    <path class="cls-1" d="M38.98,7.02h-2.18l-1.36,8.19h-1.75l1.36-8.19h-2.14l.31-1.87h6.06l-.31,1.87Z"/>
    <path class="cls-1" d="M40.22,15.21h-1.74l1.67-10.06h1.74l-1.67,10.06Z"/>
    <path class="cls-1" d="M48.38,10.39c-.16.98-.44,1.85-.83,2.6-.39.76-.86,1.34-1.41,1.75-.55.41-1.13.61-1.75.61s-1.13-.2-1.55-.59-.69-.96-.84-1.69c-.15-.73-.15-1.57,0-2.52l.09-.57c.16-.99.44-1.85.82-2.61.39-.75.86-1.33,1.41-1.74.55-.41,1.14-.61,1.76-.61s1.13.2,1.54.61c.41.4.69.98.83,1.73s.14,1.61-.02,2.57l-.08.46ZM46.67,9.97c.17-1,.17-1.76.02-2.28-.15-.52-.46-.78-.9-.78-.88,0-1.49.91-1.84,2.73l-.13.74c-.16.99-.17,1.74-.02,2.27.15.53.45.79.92.79s.83-.26,1.15-.78c.33-.52.57-1.27.74-2.25l.08-.46Z"/>
    <path class="cls-1" d="M54.54,15.21h-1.74l-1.53-6.26-1.04,6.26h-1.75l1.67-10.06h1.75l1.52,6.26,1.04-6.26h1.74l-1.67,10.06Z"/>
  </g>
</svg>