<?xml version="1.0" encoding="UTF-8"?>
<svg id="Layer_1" data-name="Layer 1" xmlns="http://www.w3.org/2000/svg" viewBox="0 0 49.75 20.19">
  <defs>
    <style>
      .cls-1 {
        fill: #fff;
      }

      .cls-2 {
        fill: #1ea289;
      }
    </style>
  </defs>
  <polygon class="cls-2" points="49.75 0 2.51 0 0 20.19 47.24 20.19 49.75 0"/>
  <g>
    <path class="cls-1" d="M9.37,11.65h-.95l-.59,3.56h-1.75l1.67-10.06h2.85c.86,0,1.49.26,1.88.79.4.53.51,1.28.35,2.24-.12.7-.32,1.28-.6,1.74-.28.46-.66.83-1.15,1.12l.84,4.06-.02.1h-1.87l-.69-3.56ZM8.73,9.79h1.11c.33,0,.6-.12.81-.36.21-.24.35-.58.42-1.01.07-.43.04-.77-.08-1.02-.13-.25-.36-.37-.69-.37h-1.11l-.46,2.77Z"/>
    <path class="cls-1" d="M17.94,10.94h-2.75l-.4,2.4h3.25l-.31,1.87h-5l1.67-10.06h5.01l-.31,1.87h-3.26l-.35,2.12h2.75l-.3,1.8Z"/>
    <path class="cls-1" d="M20.76,11.8l-.57,3.41h-1.75l1.67-10.06h2.89c.55,0,1.02.14,1.4.42.38.28.64.69.79,1.21.15.52.17,1.12.05,1.78-.16.98-.55,1.76-1.15,2.35-.6.59-1.35.88-2.23.88h-1.12ZM21.07,9.93h1.15c.34,0,.62-.12.83-.35.22-.23.36-.57.43-.99.08-.47.05-.84-.09-1.13s-.36-.42-.68-.43h-1.17l-.48,2.9Z"/>
    <path class="cls-1" d="M30.29,10.94h-2.75l-.4,2.4h3.25l-.31,1.87h-5l1.67-10.06h5.01l-.31,1.87h-3.26l-.35,2.12h2.75l-.3,1.8Z"/>
    <path class="cls-1" d="M35.22,13.33h-2.39l-.73,1.88h-1.87l4.33-10.06h1.64l1,10.06h-1.88l-.11-1.88ZM33.56,11.46h1.56l-.2-3.49-1.36,3.49Z"/>
    <path class="cls-1" d="M44.2,7.02h-2.18l-1.36,8.19h-1.75l1.36-8.19h-2.14l.31-1.87h6.06l-.31,1.87Z"/>
  </g>
</svg>