<?xml version="1.0" encoding="UTF-8"?>
<svg id="Layer_1" data-name="Layer 1" xmlns="http://www.w3.org/2000/svg" viewBox="0 0 37.14 20.19">
  <defs>
    <style>
      .cls-1 {
        fill: #fff;
      }

      .cls-2 {
        fill: #c9346c;
      }
    </style>
  </defs>
  <polygon class="cls-2" points="37.14 0 1.87 0 0 20.19 35.27 20.19 37.14 0"/>
  <g>
    <path class="cls-1" d="M12.2,7.02h-2.18l-1.36,8.19h-1.75l1.36-8.19h-2.14l.31-1.87h6.06l-.31,1.87Z"/>
    <path class="cls-1" d="M15.41,13.33h-2.4l-.73,1.88h-1.87l4.33-10.06h1.64l1,10.06h-1.88l-.11-1.88ZM13.74,11.46h1.56l-.2-3.49-1.36,3.49Z"/>
    <path class="cls-1" d="M23.98,15.21h-1.74l-1.53-6.26-1.04,6.26h-1.75l1.67-10.06h1.75l1.52,6.26,1.04-6.26h1.74l-1.67,10.06Z"/>
    <path class="cls-1" d="M28.17,11.47l-.9,1.09-.44,2.65h-1.75l1.67-10.06h1.75l-.74,4.43.82-1.28,2.09-3.16h2.16l-3.19,4.45,1.52,5.61h-2.07l-.92-3.74Z"/>
  </g>
</svg>