<?xml version="1.0" encoding="UTF-8"?>
<svg id="Layer_1" data-name="Layer 1" xmlns="http://www.w3.org/2000/svg" viewBox="0 0 73.15 20.19">
  <defs>
    <style>
      .cls-1 {
        fill: #99b330;
      }
    </style>
  </defs>
  <polygon class="cls-1" points="73.15 0 3.69 0 0 20.19 69.46 20.19 73.15 0"/>
  <g>
    <path d="M12.89,7.02h-2.18l-1.36,8.19h-1.75l1.36-8.19h-2.14l.31-1.87h6.06l-.31,1.87Z"/>
    <path d="M17.47,10.94h-2.75l-.4,2.4h3.25l-.31,1.87h-5l1.67-10.06h5.01l-.31,1.87h-3.26l-.35,2.12h2.75l-.3,1.8Z"/>
    <path d="M21.94,5.15l.45,7,2.78-7h2.3l-1.67,10.06h-1.75l.39-2.35.97-4.81-2.94,7.16h-1.16l-.57-7.16-.63,4.81-.39,2.35h-1.75l1.67-10.06h2.3Z"/>
    <path d="M29.23,11.8l-.57,3.41h-1.75l1.67-10.06h2.89c.55,0,1.02.14,1.4.42.38.28.64.69.79,1.21.15.52.17,1.12.05,1.78-.16.98-.55,1.76-1.15,2.35-.6.59-1.35.88-2.23.88h-1.12ZM29.54,9.93h1.15c.34,0,.62-.12.83-.35.22-.23.36-.57.43-.99.08-.47.05-.84-.09-1.13s-.36-.42-.68-.43h-1.17l-.48,2.9Z"/>
    <path d="M40.5,10.39c-.16.98-.44,1.85-.83,2.6-.39.76-.86,1.34-1.41,1.75-.55.41-1.13.61-1.75.61s-1.13-.2-1.55-.59-.69-.96-.84-1.69c-.15-.73-.15-1.57,0-2.52l.09-.57c.16-.99.44-1.85.82-2.61.39-.75.86-1.33,1.41-1.74.55-.41,1.14-.61,1.76-.61s1.13.2,1.54.61c.41.4.69.98.83,1.73s.14,1.61-.02,2.57l-.08.46ZM38.79,9.97c.17-1,.17-1.76.02-2.28-.15-.52-.46-.78-.9-.78-.88,0-1.49.91-1.84,2.73l-.13.74c-.16.99-.17,1.74-.02,2.27.15.53.45.79.92.79s.83-.26,1.15-.78c.33-.52.57-1.27.74-2.25l.08-.46Z"/>
    <path d="M43.88,11.65h-.95l-.59,3.56h-1.75l1.67-10.06h2.85c.86,0,1.49.26,1.88.79.4.53.51,1.28.35,2.24-.12.7-.32,1.28-.6,1.74-.28.46-.66.83-1.15,1.12l.84,4.06-.02.1h-1.87l-.69-3.56ZM43.25,9.79h1.11c.33,0,.6-.12.81-.36.21-.24.35-.58.42-1.01.07-.43.04-.77-.08-1.02-.13-.25-.36-.37-.69-.37h-1.11l-.46,2.77Z"/>
    <path d="M51.68,13.33h-2.4l-.73,1.88h-1.87l4.33-10.06h1.64l1,10.06h-1.88l-.11-1.88ZM50.02,11.46h1.56l-.2-3.49-1.36,3.49Z"/>
    <path d="M57.48,11.65h-.95l-.59,3.56h-1.75l1.67-10.06h2.85c.86,0,1.49.26,1.88.79.4.53.51,1.28.35,2.24-.12.7-.32,1.28-.6,1.74-.28.46-.66.83-1.15,1.12l.84,4.06-.02.1h-1.87l-.69-3.56ZM56.85,9.79h1.11c.33,0,.6-.12.81-.36.21-.24.35-.58.42-1.01.07-.43.04-.77-.08-1.02-.13-.25-.36-.37-.69-.37h-1.11l-.46,2.77Z"/>
    <path d="M64.22,9.52l2.06-4.37h1.89l-3.41,6.44-.6,3.61h-1.77l.6-3.61-1.26-6.44h1.88l.61,4.37Z"/>
  </g>
</svg>