<?xml version="1.0" encoding="UTF-8"?>
<svg id="Layer_1" data-name="Layer 1" xmlns="http://www.w3.org/2000/svg" viewBox="0 0 52.32 20.19">
  <defs>
    <style>
      .cls-1 {
        fill: #fff;
      }

      .cls-2 {
        fill: #6b6f70;
      }
    </style>
  </defs>
  <polygon class="cls-2" points="52.32 0 2.64 0 0 20.19 49.68 20.19 52.32 0"/>
  <g>
    <path class="cls-1" d="M12.55,12.47l2.66-7.32h1.95l-4.12,10.06h-1.91l-.75-10.06h1.94l.22,7.32Z"/>
    <path class="cls-1" d="M17.88,15.21h-1.74l1.67-10.06h1.74l-1.67,10.06Z"/>
    <path class="cls-1" d="M23.28,12.54c.06-.35.01-.63-.13-.83-.15-.2-.43-.4-.85-.61s-.76-.42-1.01-.62c-.83-.64-1.16-1.52-.97-2.64.09-.56.29-1.05.6-1.47.31-.43.69-.76,1.16-1,.47-.24.97-.36,1.5-.36s.97.13,1.34.39c.37.26.63.62.78,1.1.15.48.17,1.02.07,1.63h-1.74c.07-.41.03-.73-.11-.95-.14-.23-.37-.34-.68-.34s-.57.1-.79.29c-.21.19-.34.43-.39.73-.04.26.02.49.18.7.17.21.48.43.94.65.46.22.84.46,1.12.72.68.63.93,1.49.74,2.59-.15.88-.5,1.57-1.06,2.07-.56.5-1.26.75-2.09.75-.59,0-1.1-.15-1.52-.44-.43-.29-.72-.69-.88-1.2-.16-.51-.18-1.09-.07-1.76h1.75c-.09.54-.05.94.1,1.19.16.26.46.38.92.38.29,0,.53-.09.73-.26.2-.17.32-.42.37-.73Z"/>
    <path class="cls-1" d="M27.35,15.21h-1.74l1.67-10.06h1.74l-1.67,10.06Z"/>
    <path class="cls-1" d="M35.51,10.39c-.16.98-.44,1.85-.83,2.6-.39.76-.86,1.34-1.41,1.75-.55.41-1.13.61-1.75.61s-1.13-.2-1.55-.59-.69-.96-.84-1.69c-.15-.73-.15-1.57,0-2.52l.09-.57c.16-.99.44-1.85.82-2.61.39-.75.86-1.33,1.41-1.74.55-.41,1.14-.61,1.76-.61s1.13.2,1.54.61c.41.4.69.98.83,1.73s.14,1.61-.02,2.57l-.08.46ZM33.8,9.97c.17-1,.17-1.76.02-2.28-.15-.52-.46-.78-.9-.78-.88,0-1.49.91-1.84,2.73l-.13.74c-.16.99-.17,1.74-.02,2.27.15.53.45.79.92.79s.83-.26,1.15-.78c.33-.52.57-1.27.74-2.25l.08-.46Z"/>
    <path class="cls-1" d="M41.66,15.21h-1.74l-1.53-6.26-1.04,6.26h-1.75l1.67-10.06h1.75l1.52,6.26,1.04-6.26h1.74l-1.67,10.06Z"/>
  </g>
</svg>