<?xml version="1.0" encoding="UTF-8"?>
<svg id="Layer_1" data-name="Layer 1" xmlns="http://www.w3.org/2000/svg" viewBox="0 0 97.06 20.19">
  <defs>
    <style>
      .cls-1 {
        fill: #fff;
      }

      .cls-2 {
        fill: #6b6f70;
      }
    </style>
  </defs>
  <polygon class="cls-2" points="97.06 0 4.89 0 0 20.19 92.17 20.19 97.06 0"/>
  <g>
    <path class="cls-1" d="M12.92,11.46l1.88-6.31h1.73l-3.21,10.06h-1.81l-.02-5.73-1.91,5.73h-1.81l.13-10.06h1.74l-.22,6.31,2.05-6.31h1.48l-.04,6.31Z"/>
    <path class="cls-1" d="M20.75,10.94h-2.75l-.4,2.4h3.25l-.31,1.87h-5l1.67-10.06h5.01l-.31,1.87h-3.26l-.35,2.12h2.75l-.3,1.8Z"/>
    <path class="cls-1" d="M25.68,13.33h-2.39l-.73,1.88h-1.87l4.33-10.06h1.64l1,10.06h-1.88l-.11-1.88ZM24.01,11.46h1.56l-.2-3.49-1.36,3.49Z"/>
    <path class="cls-1" d="M30.51,11.8l-.57,3.41h-1.75l1.67-10.06h2.89c.55,0,1.02.14,1.4.42.38.28.64.69.79,1.21.15.52.17,1.12.05,1.78-.16.98-.55,1.76-1.15,2.35-.6.59-1.35.88-2.23.88h-1.12ZM30.82,9.93h1.15c.34,0,.62-.12.83-.35.22-.23.36-.57.43-.99.08-.47.05-.84-.09-1.13s-.36-.42-.68-.43h-1.17l-.48,2.9Z"/>
    <path class="cls-1" d="M41.78,10.39c-.16.98-.44,1.85-.83,2.6-.39.76-.86,1.34-1.41,1.75-.55.41-1.13.61-1.75.61s-1.13-.2-1.55-.59-.69-.96-.84-1.69c-.15-.73-.15-1.57,0-2.52l.09-.57c.16-.99.44-1.85.82-2.61.39-.75.86-1.33,1.41-1.74.55-.41,1.14-.61,1.76-.61s1.13.2,1.54.61c.41.4.69.98.83,1.73s.14,1.61-.02,2.57l-.08.46ZM40.07,9.97c.17-1,.17-1.76.02-2.28-.15-.52-.46-.78-.9-.78-.88,0-1.49.91-1.84,2.73l-.13.74c-.16.99-.17,1.74-.02,2.27.15.53.45.79.92.79s.83-.26,1.15-.78c.33-.52.57-1.27.74-2.25l.08-.46Z"/>
    <path class="cls-1" d="M47.93,15.21h-1.74l-1.53-6.26-1.04,6.26h-1.75l1.67-10.06h1.75l1.52,6.26,1.04-6.26h1.74l-1.67,10.06Z"/>
    <path class="cls-1" d="M53.01,5.15l.45,7,2.78-7h2.3l-1.67,10.06h-1.75l.39-2.35.97-4.81-2.94,7.16h-1.16l-.57-7.16-.63,4.81-.39,2.35h-1.75l1.67-10.06h2.3Z"/>
    <path class="cls-1" d="M62.41,13.33h-2.39l-.73,1.88h-1.87l4.33-10.06h1.64l1,10.06h-1.88l-.11-1.88ZM60.75,11.46h1.56l-.2-3.49-1.36,3.49Z"/>
    <path class="cls-1" d="M69.12,12.54c.06-.35.01-.63-.13-.83-.15-.2-.43-.4-.85-.61s-.76-.42-1.01-.62c-.83-.64-1.16-1.52-.97-2.64.09-.56.29-1.05.6-1.47.31-.43.69-.76,1.16-1,.47-.24.97-.36,1.5-.36s.97.13,1.34.39c.37.26.63.62.78,1.1.15.48.17,1.02.07,1.63h-1.74c.07-.41.03-.73-.11-.95-.14-.23-.37-.34-.68-.34s-.57.1-.79.29c-.21.19-.34.43-.39.73-.04.26.02.49.18.7.17.21.48.43.94.65.46.22.84.46,1.12.72.68.63.93,1.49.74,2.59-.15.88-.5,1.57-1.06,2.07-.56.5-1.26.75-2.09.75-.59,0-1.1-.15-1.52-.44-.43-.29-.72-.69-.88-1.2-.16-.51-.18-1.09-.07-1.76h1.75c-.09.54-.05.94.1,1.19.16.26.46.38.92.38.29,0,.53-.09.73-.26.2-.17.32-.42.37-.73Z"/>
    <path class="cls-1" d="M78.37,7.02h-2.18l-1.36,8.19h-1.75l1.36-8.19h-2.14l.31-1.87h6.06l-.31,1.87Z"/>
    <path class="cls-1" d="M82.96,10.94h-2.75l-.4,2.4h3.25l-.31,1.87h-5l1.67-10.06h5.01l-.31,1.87h-3.26l-.35,2.12h2.75l-.3,1.8Z"/>
    <path class="cls-1" d="M86.74,11.65h-.95l-.59,3.56h-1.75l1.67-10.06h2.85c.86,0,1.49.26,1.88.79.4.53.51,1.28.35,2.24-.12.7-.32,1.28-.6,1.74-.28.46-.66.83-1.15,1.12l.84,4.06-.02.1h-1.87l-.69-3.56ZM86.11,9.79h1.11c.33,0,.6-.12.81-.36.21-.24.35-.58.42-1.01.07-.43.04-.77-.08-1.02-.13-.25-.36-.37-.69-.37h-1.11l-.46,2.77Z"/>
  </g>
</svg>