<?xml version="1.0" encoding="UTF-8"?>
<svg id="Layer_1" data-name="Layer 1" xmlns="http://www.w3.org/2000/svg" viewBox="0 0 33.41 20.19">
  <defs>
    <style>
      .cls-1 {
        fill: #fff;
      }

      .cls-2 {
        fill: #6b6f70;
      }
    </style>
  </defs>
  <polygon class="cls-2" points="33.41 0 1.68 0 0 20.19 31.72 20.19 33.41 0"/>
  <g>
    <path class="cls-1" d="M10.93,13.33h-2.4l-.73,1.88h-1.87l4.33-10.06h1.64l1,10.06h-1.88l-.11-1.88ZM9.27,11.46h1.56l-.2-3.49-1.36,3.49Z"/>
    <path class="cls-1" d="M13.45,15.21l1.67-10.06h2.34c.64,0,1.18.2,1.63.6.44.4.75.97.91,1.71.17.73.17,1.56.02,2.47l-.08.46c-.15.92-.43,1.75-.83,2.48-.4.73-.89,1.3-1.47,1.71s-1.18.62-1.81.62h-2.39ZM16.56,7.02l-1.05,6.32h.61c.5,0,.93-.25,1.28-.74.35-.5.61-1.23.77-2.21l.07-.43c.16-.97.15-1.7-.04-2.2-.19-.49-.54-.74-1.05-.74h-.59Z"/>
    <path class="cls-1" d="M20.04,15.21l1.67-10.06h2.34c.64,0,1.18.2,1.63.6.44.4.75.97.91,1.71.17.73.17,1.56.02,2.47l-.08.46c-.15.92-.43,1.75-.83,2.48-.4.73-.89,1.3-1.47,1.71-.58.41-1.18.62-1.81.62h-2.39ZM23.16,7.02l-1.05,6.32h.61c.5,0,.93-.25,1.28-.74.35-.5.61-1.23.77-2.21l.07-.43c.16-.97.15-1.7-.04-2.2-.19-.49-.54-.74-1.05-.74h-.59Z"/>
  </g>
</svg>